<svg xmlns="http://www.w3.org/2000/svg" width="1920" height="1080"><path d="M-24,-255L294,-237L447,-246Z" fill="#cd4545" stroke="#cd4545" stroke-width="1.51"/><path d="M998,1318L468,1337L1394,1317Z" fill="#b1a8b4" stroke="#b1a8b4" stroke-width="1.51"/><path d="M1131,1315L998,1318L1394,1317Z" fill="#a8a5a6" stroke="#a8a5a6" stroke-width="1.51"/><path d="M-24,-255L447,-246L1595,-254Z" fill="#d47e63" stroke="#d47e63" stroke-width="1.51"/><path d="M447,-246L1057,-225L1595,-254Z" fill="#d69279" stroke="#d69279" stroke-width="1.51"/><path d="M1057,-225L1399,-206L1595,-254Z" fill="#c18b71" stroke="#c18b71" stroke-width="1.51"/><path d="M2003,1255L1839,1241L2068,1292Z" fill="#4777b5" stroke="#4777b5" stroke-width="1.51"/><path d="M1839,1241L1712,1252L2068,1292Z" fill="#4b83b5" stroke="#4b83b5" stroke-width="1.51"/><path d="M1712,1252L1394,1317L2068,1292Z" fill="#5f8fab" stroke="#5f8fab" stroke-width="1.51"/><path d="M2020,1116L2092,1195L2126,998Z" fill="#5786af" stroke="#5786af" stroke-width="1.51"/><path d="M2063,819L2126,998L2146,580Z" fill="#94a0a7" stroke="#94a0a7" stroke-width="1.51"/><path d="M2079,693L2063,819L2146,580Z" fill="#a6a8a6" stroke="#a6a8a6" stroke-width="1.51"/><path d="M2145,198L2074,291L2146,580Z" fill="#b4979a" stroke="#b4979a" stroke-width="1.51"/><path d="M2074,291L2047,488L2146,580Z" fill="#b1a6ab" stroke="#b1a6ab" stroke-width="1.51"/><path d="M1842,-240L1998,-148L2167,-165Z" fill="#96597d" stroke="#96597d" stroke-width="1.51"/><path d="M1998,-148L2063,-48L2167,-165Z" fill="#a2567d" stroke="#a2567d" stroke-width="1.51"/><path d="M2063,-48L2127,84L2167,-165Z" fill="#ab597a" stroke="#ab597a" stroke-width="1.51"/><path d="M2127,84L2145,198L2167,-165Z" fill="#b35f77" stroke="#b35f77" stroke-width="1.51"/><path d="M2145,198L2146,580L2167,-165Z" fill="#b67d86" stroke="#b67d86" stroke-width="1.51"/><path d="M1571,1254L1394,1317L1712,1252Z" fill="#759cab" stroke="#759cab" stroke-width="1.51"/><path d="M2063,819L2000,993L2126,998Z" fill="#759cab" stroke="#759cab" stroke-width="1.51"/><path d="M2127,84L1941,151L2145,198Z" fill="#b57c84" stroke="#b57c84" stroke-width="1.51"/><path d="M1975,553L2079,693L2146,580Z" fill="#abafb1" stroke="#abafb1" stroke-width="1.51"/><path d="M2047,488L1975,553L2146,580Z" fill="#aeb2b9" stroke="#aeb2b9" stroke-width="1.51"/><path d="M1944,385L2047,488L2074,291Z" fill="#b0a9a4" stroke="#b0a9a4" stroke-width="1.51"/><path d="M1941,151L2074,291L2145,198Z" fill="#b48b8b" stroke="#b48b8b" stroke-width="1.51"/><path d="M2000,993L2020,1116L2126,998Z" fill="#5e95ac" stroke="#5e95ac" stroke-width="1.51"/><path d="M2063,-48L1938,104L2127,84Z" fill="#b36f7c" stroke="#b36f7c" stroke-width="1.51"/><path d="M1938,104L1941,151L2127,84Z" fill="#b38084" stroke="#b38084" stroke-width="1.51"/><path d="M1595,-254L1659,-233L1842,-240Z" fill="#9b7973" stroke="#9b7973" stroke-width="1.51"/><path d="M1938,839L2000,993L2063,819Z" fill="#7ca7ae" stroke="#7ca7ae" stroke-width="1.51"/><path d="M1951,691L2063,819L2079,693Z" fill="#9daeaa" stroke="#9daeaa" stroke-width="1.51"/><path d="M1975,553L1951,691L2079,693Z" fill="#a5b5b0" stroke="#a5b5b0" stroke-width="1.51"/><path d="M2003,1255L2068,1292L2092,1195Z" fill="#4d70b1" stroke="#4d70b1" stroke-width="1.51"/><path d="M2020,1116L2003,1255L2092,1195Z" fill="#427cb7" stroke="#427cb7" stroke-width="1.51"/><path d="M1879,-8L1938,104L2063,-48Z" fill="#af7681" stroke="#af7681" stroke-width="1.51"/><path d="M1951,691L1938,839L2063,819Z" fill="#90b0ad" stroke="#90b0ad" stroke-width="1.51"/><path d="M1941,151L1944,385L2074,291Z" fill="#b29d97" stroke="#b29d97" stroke-width="1.51"/><path d="M1998,-148L1947,-119L2063,-48Z" fill="#a46281" stroke="#a46281" stroke-width="1.51"/><path d="M1947,-119L1879,-8L2063,-48Z" fill="#a86d82" stroke="#a86d82" stroke-width="1.51"/><path d="M1891,770L1938,839L1951,691Z" fill="#91b8af" stroke="#91b8af" stroke-width="1.51"/><path d="M1916,504L1975,553L2047,488Z" fill="#abb9ba" stroke="#abb9ba" stroke-width="1.51"/><path d="M1944,385L1916,504L2047,488Z" fill="#acb5b2" stroke="#acb5b2" stroke-width="1.51"/><path d="M1941,151L1823,170L1944,385Z" fill="#b2a293" stroke="#b2a293" stroke-width="1.51"/><path d="M1823,170L1778,298L1944,385Z" fill="#b5af96" stroke="#b5af96" stroke-width="1.51"/><path d="M1842,-240L1947,-119L1998,-148Z" fill="#986582" stroke="#986582" stroke-width="1.51"/><path d="M1938,839L1883,879L2000,993Z" fill="#73adb1" stroke="#73adb1" stroke-width="1.51"/><path d="M1841,1119L1839,1241L2003,1255Z" fill="#3d89ba" stroke="#3d89ba" stroke-width="1.51"/><path d="M2000,993L1839,1056L2020,1116Z" fill="#519db3" stroke="#519db3" stroke-width="1.51"/><path d="M1839,1056L1841,1119L2020,1116Z" fill="#4b9bb5" stroke="#4b9bb5" stroke-width="1.51"/><path d="M1841,1119L2003,1255L2020,1116Z" fill="#3d8aba" stroke="#3d8aba" stroke-width="1.51"/><path d="M1890,484L1916,504L1944,385Z" fill="#acbcb3" stroke="#acbcb3" stroke-width="1.51"/><path d="M1883,879L1839,1056L2000,993Z" fill="#63abb1" stroke="#63abb1" stroke-width="1.51"/><path d="M1916,504L1782,662L1951,691Z" fill="#a6c5b4" stroke="#a6c5b4" stroke-width="1.51"/><path d="M1916,504L1951,691L1975,553Z" fill="#a7beba" stroke="#a7beba" stroke-width="1.51"/><path d="M1879,-8L1821,84L1938,104Z" fill="#b5867f" stroke="#b5867f" stroke-width="1.51"/><path d="M1782,662L1891,770L1951,691Z" fill="#a0c3aa" stroke="#a0c3aa" stroke-width="1.51"/><path d="M1842,-240L1879,-8L1947,-119Z" fill="#a36f82" stroke="#a36f82" stroke-width="1.51"/><path d="M1890,484L1782,662L1916,504Z" fill="#accabb" stroke="#accabb" stroke-width="1.51"/><path d="M1778,298L1890,484L1944,385Z" fill="#b0bba5" stroke="#b0bba5" stroke-width="1.51"/><path d="M1821,84L1823,170L1938,104Z" fill="#b79384" stroke="#b79384" stroke-width="1.51"/><path d="M1938,104L1823,170L1941,151Z" fill="#b49188" stroke="#b49188" stroke-width="1.51"/><path d="M1891,770L1883,879L1938,839Z" fill="#85b7b0" stroke="#85b7b0" stroke-width="1.51"/><path d="M1842,-240L1700,-16L1879,-8Z" fill="#ad7d7e" stroke="#ad7d7e" stroke-width="1.51"/><path d="M1680,997L1839,1056L1883,879Z" fill="#6bb8ab" stroke="#6bb8ab" stroke-width="1.51"/><path d="M1688,437L1782,662L1890,484Z" fill="#b2d3b6" stroke="#b2d3b6" stroke-width="1.51"/><path d="M1778,298L1688,437L1890,484Z" fill="#b5c8a3" stroke="#b5c8a3" stroke-width="1.51"/><path d="M1683,784L1883,879L1891,770Z" fill="#8ec3ab" stroke="#8ec3ab" stroke-width="1.51"/><path d="M1782,662L1683,784L1891,770Z" fill="#9fcda6" stroke="#9fcda6" stroke-width="1.51"/><path d="M1659,-233L1700,-16L1842,-240Z" fill="#a67e78" stroke="#a67e78" stroke-width="1.51"/><path d="M1683,784L1653,864L1883,879Z" fill="#8ccba7" stroke="#8ccba7" stroke-width="1.51"/><path d="M1653,864L1680,997L1883,879Z" fill="#7dc5a7" stroke="#7dc5a7" stroke-width="1.51"/><path d="M1700,-16L1821,84L1879,-8Z" fill="#b88b7b" stroke="#b88b7b" stroke-width="1.51"/><path d="M1659,-233L1625,-91L1700,-16Z" fill="#b48b78" stroke="#b48b78" stroke-width="1.51"/><path d="M1715,314L1688,437L1778,298Z" fill="#bac998" stroke="#bac998" stroke-width="1.51"/><path d="M1688,437L1654,655L1782,662Z" fill="#b3dcae" stroke="#b3dcae" stroke-width="1.51"/><path d="M1712,1252L1839,1241L1841,1119Z" fill="#4a95b5" stroke="#4a95b5" stroke-width="1.51"/><path d="M1682,1135L1712,1252L1841,1119Z" fill="#50a1b3" stroke="#50a1b3" stroke-width="1.51"/><path d="M1839,1056L1682,1135L1841,1119Z" fill="#56a8b0" stroke="#56a8b0" stroke-width="1.51"/><path d="M1821,84L1721,144L1823,170Z" fill="#bb9f81" stroke="#bb9f81" stroke-width="1.51"/><path d="M1680,997L1682,1135L1839,1056Z" fill="#5fb6ab" stroke="#5fb6ab" stroke-width="1.51"/><path d="M1600,584L1654,655L1688,437Z" fill="#bbe3b0" stroke="#bbe3b0" stroke-width="1.51"/><path d="M1700,-16L1721,144L1821,84Z" fill="#be9978" stroke="#be9978" stroke-width="1.51"/><path d="M1721,144L1778,298L1823,170Z" fill="#bbad88" stroke="#bbad88" stroke-width="1.51"/><path d="M1700,-16L1647,54L1721,144Z" fill="#c29f74" stroke="#c29f74" stroke-width="1.51"/><path d="M1721,144L1715,314L1778,298Z" fill="#bcb98b" stroke="#bcb98b" stroke-width="1.51"/><path d="M1654,655L1683,784L1782,662Z" fill="#abd9a0" stroke="#abd9a0" stroke-width="1.51"/><path d="M1057,-225L1200,-188L1399,-206Z" fill="#d2936f" stroke="#d2936f" stroke-width="1.51"/><path d="M1682,1135L1607,1200L1712,1252Z" fill="#58a4b1" stroke="#58a4b1" stroke-width="1.51"/><path d="M1535,310L1688,437L1715,314Z" fill="#c1d196" stroke="#c1d196" stroke-width="1.51"/><path d="M1567,158L1535,310L1715,314Z" fill="#c8c589" stroke="#c8c589" stroke-width="1.51"/><path d="M1567,158L1715,314L1721,144Z" fill="#c2b983" stroke="#c2b983" stroke-width="1.51"/><path d="M1647,54L1567,158L1721,144Z" fill="#c5ab7a" stroke="#c5ab7a" stroke-width="1.51"/><path d="M1680,997L1547,1049L1682,1135Z" fill="#6cbea8" stroke="#6cbea8" stroke-width="1.51"/><path d="M1607,1200L1571,1254L1712,1252Z" fill="#65a0ae" stroke="#65a0ae" stroke-width="1.51"/><path d="M1519,468L1600,584L1688,437Z" fill="#c3e2ab" stroke="#c3e2ab" stroke-width="1.51"/><path d="M1625,-91L1647,54L1700,-16Z" fill="#be9776" stroke="#be9776" stroke-width="1.51"/><path d="M447,-246L809,-183L1057,-225Z" fill="#db8a6d" stroke="#db8a6d" stroke-width="1.51"/><path d="M1625,-91L1572,36L1647,54Z" fill="#c49b75" stroke="#c49b75" stroke-width="1.51"/><path d="M1653,864L1547,1049L1680,997Z" fill="#7dcaa5" stroke="#7dcaa5" stroke-width="1.51"/><path d="M1654,655L1523,688L1683,784Z" fill="#b3dfa0" stroke="#b3dfa0" stroke-width="1.51"/><path d="M1523,688L1598,832L1683,784Z" fill="#aadba1" stroke="#aadba1" stroke-width="1.51"/><path d="M1598,832L1653,864L1683,784Z" fill="#98d5a3" stroke="#98d5a3" stroke-width="1.51"/><path d="M1535,310L1519,468L1688,437Z" fill="#c7da9d" stroke="#c7da9d" stroke-width="1.51"/><path d="M1598,832L1547,1049L1653,864Z" fill="#8dd0a5" stroke="#8dd0a5" stroke-width="1.51"/><path d="M1595,-254L1625,-91L1659,-233Z" fill="#ab8374" stroke="#ab8374" stroke-width="1.51"/><path d="M1547,1049L1607,1200L1682,1135Z" fill="#68b4ad" stroke="#68b4ad" stroke-width="1.51"/><path d="M1456,978L1547,1049L1598,832Z" fill="#8ed0a5" stroke="#8ed0a5" stroke-width="1.51"/><path d="M1572,36L1567,158L1647,54Z" fill="#cba776" stroke="#cba776" stroke-width="1.51"/><path d="M1600,584L1523,688L1654,655Z" fill="#bce3a6" stroke="#bce3a6" stroke-width="1.51"/><path d="M1399,-206L1451,-60L1595,-254Z" fill="#bd8c75" stroke="#bd8c75" stroke-width="1.51"/><path d="M1523,688L1481,828L1598,832Z" fill="#afdea1" stroke="#afdea1" stroke-width="1.51"/><path d="M1481,828L1456,978L1598,832Z" fill="#a0d8a4" stroke="#a0d8a4" stroke-width="1.51"/><path d="M1595,-254L1451,-60L1625,-91Z" fill="#bc8e77" stroke="#bc8e77" stroke-width="1.51"/><path d="M1451,-60L1572,36L1625,-91Z" fill="#c79976" stroke="#c79976" stroke-width="1.51"/><path d="M1478,163L1535,310L1567,158Z" fill="#d2c282" stroke="#d2c282" stroke-width="1.51"/><path d="M1477,587L1523,688L1600,584Z" fill="#c5e7a8" stroke="#c5e7a8" stroke-width="1.51"/><path d="M1519,468L1477,587L1600,584Z" fill="#cbe9b0" stroke="#cbe9b0" stroke-width="1.51"/><path d="M1373,1160L1571,1254L1607,1200Z" fill="#73aab0" stroke="#73aab0" stroke-width="1.51"/><path d="M1547,1049L1373,1160L1607,1200Z" fill="#78b7ae" stroke="#78b7ae" stroke-width="1.51"/><path d="M1478,163L1567,158L1572,36Z" fill="#d1b17a" stroke="#d1b17a" stroke-width="1.51"/><path d="M1436,437L1519,468L1535,310Z" fill="#d1de9c" stroke="#d1de9c" stroke-width="1.51"/><path d="M1427,335L1436,437L1535,310Z" fill="#d5dc95" stroke="#d5dc95" stroke-width="1.51"/><path d="M1373,1160L1394,1317L1571,1254Z" fill="#81a7ae" stroke="#81a7ae" stroke-width="1.51"/><path d="M1397,122L1478,163L1572,36Z" fill="#d7b178" stroke="#d7b178" stroke-width="1.51"/><path d="M1451,-60L1397,122L1572,36Z" fill="#d6a673" stroke="#d6a673" stroke-width="1.51"/><path d="M1478,163L1427,335L1535,310Z" fill="#d6cd8a" stroke="#d6cd8a" stroke-width="1.51"/><path d="M1456,978L1373,1160L1547,1049Z" fill="#86c8a8" stroke="#86c8a8" stroke-width="1.51"/><path d="M1273,1284L1131,1315L1394,1317Z" fill="#9ea4a5" stroke="#9ea4a5" stroke-width="1.51"/><path d="M1373,782L1481,828L1523,688Z" fill="#bce3a1" stroke="#bce3a1" stroke-width="1.51"/><path d="M1436,437L1477,587L1519,468Z" fill="#d2e9ab" stroke="#d2e9ab" stroke-width="1.51"/><path d="M1477,587L1337,727L1523,688Z" fill="#cceaa2" stroke="#cceaa2" stroke-width="1.51"/><path d="M1337,727L1373,782L1523,688Z" fill="#c8e89e" stroke="#c8e89e" stroke-width="1.51"/><path d="M1331,28L1397,122L1451,-60Z" fill="#dea972" stroke="#dea972" stroke-width="1.51"/><path d="M1397,122L1281,193L1427,335Z" fill="#e3cb80" stroke="#e3cb80" stroke-width="1.51"/><path d="M1373,782L1248,922L1456,978Z" fill="#b0dfa2" stroke="#b0dfa2" stroke-width="1.51"/><path d="M1275,1047L1373,1160L1456,978Z" fill="#93cda6" stroke="#93cda6" stroke-width="1.51"/><path d="M1436,437L1342,485L1477,587Z" fill="#d9ecab" stroke="#d9ecab" stroke-width="1.51"/><path d="M1312,655L1337,727L1477,587Z" fill="#d5eea2" stroke="#d5eea2" stroke-width="1.51"/><path d="M1397,122L1427,335L1478,163Z" fill="#dcc581" stroke="#dcc581" stroke-width="1.51"/><path d="M1373,782L1456,978L1481,828Z" fill="#addda4" stroke="#addda4" stroke-width="1.51"/><path d="M1342,485L1312,655L1477,587Z" fill="#dbf1ab" stroke="#dbf1ab" stroke-width="1.51"/><path d="M1279,-159L1300,-45L1399,-206Z" fill="#d39874" stroke="#d39874" stroke-width="1.51"/><path d="M1399,-206L1300,-45L1451,-60Z" fill="#d39976" stroke="#d39976" stroke-width="1.51"/><path d="M1248,922L1275,1047L1456,978Z" fill="#a4d9a2" stroke="#a4d9a2" stroke-width="1.51"/><path d="M1300,-45L1331,28L1451,-60Z" fill="#dda473" stroke="#dda473" stroke-width="1.51"/><path d="M1373,1160L1282,1204L1394,1317Z" fill="#8dafad" stroke="#8dafad" stroke-width="1.51"/><path d="M1200,-188L1279,-159L1399,-206Z" fill="#cf9371" stroke="#cf9371" stroke-width="1.51"/><path d="M1252,382L1342,485L1427,335Z" fill="#e3e699" stroke="#e3e699" stroke-width="1.51"/><path d="M1427,335L1342,485L1436,437Z" fill="#dce59d" stroke="#dce59d" stroke-width="1.51"/><path d="M1282,1204L1273,1284L1394,1317Z" fill="#95a9aa" stroke="#95a9aa" stroke-width="1.51"/><path d="M1281,193L1252,382L1427,335Z" fill="#e6da8a" stroke="#e6da8a" stroke-width="1.51"/><path d="M1331,28L1281,193L1397,122Z" fill="#e6b976" stroke="#e6b976" stroke-width="1.51"/><path d="M621,1282L468,1337L998,1318Z" fill="#b3999b" stroke="#b3999b" stroke-width="1.51"/><path d="M1196,547L1312,655L1342,485Z" fill="#e8f6ab" stroke="#e8f6ab" stroke-width="1.51"/><path d="M1275,1047L1282,1204L1373,1160Z" fill="#94c1ac" stroke="#94c1ac" stroke-width="1.51"/><path d="M1337,727L1248,922L1373,782Z" fill="#c5e79f" stroke="#c5e79f" stroke-width="1.51"/><path d="M1275,1047L1195,1110L1282,1204Z" fill="#9ec7a9" stroke="#9ec7a9" stroke-width="1.51"/><path d="M1155,118L1281,193L1331,28Z" fill="#efbd74" stroke="#efbd74" stroke-width="1.51"/><path d="M1155,692L1248,922L1337,727Z" fill="#d3ed9c" stroke="#d3ed9c" stroke-width="1.51"/><path d="M1252,382L1196,547L1342,485Z" fill="#ecf1a2" stroke="#ecf1a2" stroke-width="1.51"/><path d="M1312,655L1155,692L1337,727Z" fill="#e0f39b" stroke="#e0f39b" stroke-width="1.51"/><path d="M1155,692L1144,910L1248,922Z" fill="#cfeb9f" stroke="#cfeb9f" stroke-width="1.51"/><path d="M1300,-45L1155,118L1331,28Z" fill="#ecaf6e" stroke="#ecaf6e" stroke-width="1.51"/><path d="M1125,-45L1155,118L1300,-45Z" fill="#f0af6f" stroke="#f0af6f" stroke-width="1.51"/><path d="M1196,547L1155,692L1312,655Z" fill="#eaf6a1" stroke="#eaf6a1" stroke-width="1.51"/><path d="M1200,-188L1125,-45L1279,-159Z" fill="#e19d71" stroke="#e19d71" stroke-width="1.51"/><path d="M1117,382L1252,382L1281,193Z" fill="#f2e18a" stroke="#f2e18a" stroke-width="1.51"/><path d="M1139,143L1117,382L1281,193Z" fill="#f6d681" stroke="#f6d681" stroke-width="1.51"/><path d="M1279,-159L1125,-45L1300,-45Z" fill="#e4a272" stroke="#e4a272" stroke-width="1.51"/><path d="M1105,501L1196,547L1252,382Z" fill="#f4f5a3" stroke="#f4f5a3" stroke-width="1.51"/><path d="M1248,922L1191,1068L1275,1047Z" fill="#aadba0" stroke="#aadba0" stroke-width="1.51"/><path d="M1191,1068L1195,1110L1275,1047Z" fill="#a6d1a4" stroke="#a6d1a4" stroke-width="1.51"/><path d="M1155,118L1139,143L1281,193Z" fill="#f5c677" stroke="#f5c677" stroke-width="1.51"/><path d="M1131,1315L1273,1284L1282,1204Z" fill="#a1ada8" stroke="#a1ada8" stroke-width="1.51"/><path d="M1195,1110L1131,1315L1282,1204Z" fill="#9fb9ac" stroke="#9fb9ac" stroke-width="1.51"/><path d="M1070,852L1144,910L1155,692Z" fill="#d5eea3" stroke="#d5eea3" stroke-width="1.51"/><path d="M1117,382L1105,501L1252,382Z" fill="#f5f09c" stroke="#f5f09c" stroke-width="1.51"/><path d="M1144,910L1191,1068L1248,922Z" fill="#b7e0a0" stroke="#b7e0a0" stroke-width="1.51"/><path d="M1021,247L1117,382L1139,143Z" fill="#fadb8b" stroke="#fadb8b" stroke-width="1.51"/><path d="M1144,910L1087,1007L1191,1068Z" fill="#b5dfa4" stroke="#b5dfa4" stroke-width="1.51"/><path d="M809,-183L936,-178L1057,-225Z" fill="#e1977e" stroke="#e1977e" stroke-width="1.51"/><path d="M1084,506L1021,551L1155,692Z" fill="#f5fbb0" stroke="#f5fbb0" stroke-width="1.51"/><path d="M1077,1092L1131,1315L1195,1110Z" fill="#a2c1b1" stroke="#a2c1b1" stroke-width="1.51"/><path d="M1084,506L1155,692L1196,547Z" fill="#f3faab" stroke="#f3faab" stroke-width="1.51"/><path d="M1105,501L1084,506L1196,547Z" fill="#f7faae" stroke="#f7faae" stroke-width="1.51"/><path d="M1057,-225L1125,-45L1200,-188Z" fill="#e19c76" stroke="#e19c76" stroke-width="1.51"/><path d="M1191,1068L1077,1092L1195,1110Z" fill="#a9d0a9" stroke="#a9d0a9" stroke-width="1.51"/><path d="M1057,-225L1003,-128L1125,-45Z" fill="#e79f7c" stroke="#e79f7c" stroke-width="1.51"/><path d="M1077,1092L953,1198L1131,1315Z" fill="#a5bdb8" stroke="#a5bdb8" stroke-width="1.51"/><path d="M1014,786L1070,852L1155,692Z" fill="#e0f2a5" stroke="#e0f2a5" stroke-width="1.51"/><path d="M1087,1007L1077,1092L1191,1068Z" fill="#add8a9" stroke="#add8a9" stroke-width="1.51"/><path d="M717,1256L621,1282L998,1318Z" fill="#b2a4a6" stroke="#b2a4a6" stroke-width="1.51"/><path d="M1021,247L1014,339L1117,382Z" fill="#fbe596" stroke="#fbe596" stroke-width="1.51"/><path d="M953,1198L998,1318L1131,1315Z" fill="#acafb4" stroke="#acafb4" stroke-width="1.51"/><path d="M1008,115L1139,143L1155,118Z" fill="#fac37b" stroke="#fac37b" stroke-width="1.51"/><path d="M1125,-45L1008,115L1155,118Z" fill="#f9b875" stroke="#f9b875" stroke-width="1.51"/><path d="M1021,551L1014,786L1155,692Z" fill="#eff9a6" stroke="#eff9a6" stroke-width="1.51"/><path d="M1084,506L1105,501L1117,382Z" fill="#f8f5a7" stroke="#f8f5a7" stroke-width="1.51"/><path d="M1008,115L1021,247L1139,143Z" fill="#fccc83" stroke="#fccc83" stroke-width="1.51"/><path d="M1070,852L1087,1007L1144,910Z" fill="#c4e6a7" stroke="#c4e6a7" stroke-width="1.51"/><path d="M940,-50L1008,115L1125,-45Z" fill="#f8b17c" stroke="#f8b17c" stroke-width="1.51"/><path d="M1014,339L1084,506L1117,382Z" fill="#faf0a1" stroke="#faf0a1" stroke-width="1.51"/><path d="M1003,-128L940,-50L1125,-45Z" fill="#f1a77f" stroke="#f1a77f" stroke-width="1.51"/><path d="M953,1198L945,1254L998,1318Z" fill="#adb4ba" stroke="#adb4ba" stroke-width="1.51"/><path d="M901,739L1014,786L1021,551Z" fill="#f3faab" stroke="#f3faab" stroke-width="1.51"/><path d="M1014,339L926,438L1084,506Z" fill="#fdf3a9" stroke="#fdf3a9" stroke-width="1.51"/><path d="M832,898L888,1042L1070,852Z" fill="#cae7af" stroke="#cae7af" stroke-width="1.51"/><path d="M926,438L1021,551L1084,506Z" fill="#fdfab4" stroke="#fdfab4" stroke-width="1.51"/><path d="M888,1042L1077,1092L1087,1007Z" fill="#b3dbaf" stroke="#b3dbaf" stroke-width="1.51"/><path d="M1070,852L888,1042L1087,1007Z" fill="#bfe5ae" stroke="#bfe5ae" stroke-width="1.51"/><path d="M856,649L901,739L1021,551Z" fill="#f7faaf" stroke="#f7faaf" stroke-width="1.51"/><path d="M1014,786L832,898L1070,852Z" fill="#d8f0b0" stroke="#d8f0b0" stroke-width="1.51"/><path d="M888,1042L953,1198L1077,1092Z" fill="#afd0b8" stroke="#afd0b8" stroke-width="1.51"/><path d="M245,1317L101,1339L468,1337Z" fill="#b5667a" stroke="#b5667a" stroke-width="1.51"/><path d="M447,-246L562,-183L809,-183Z" fill="#db7c5f" stroke="#db7c5f" stroke-width="1.51"/><path d="M936,-178L1003,-128L1057,-225Z" fill="#e39a7f" stroke="#e39a7f" stroke-width="1.51"/><path d="M940,-50L867,123L1008,115Z" fill="#ffb87e" stroke="#ffb87e" stroke-width="1.51"/><path d="M950,314L926,438L1014,339Z" fill="#ffeda2" stroke="#ffeda2" stroke-width="1.51"/><path d="M901,739L832,898L1014,786Z" fill="#e0efaa" stroke="#e0efaa" stroke-width="1.51"/><path d="M926,438L856,649L1021,551Z" fill="#fffdbb" stroke="#fffdbb" stroke-width="1.51"/><path d="M1008,115L926,231L1021,247Z" fill="#ffd38b" stroke="#ffd38b" stroke-width="1.51"/><path d="M950,314L1014,339L1021,247Z" fill="#fee398" stroke="#fee398" stroke-width="1.51"/><path d="M926,231L950,314L1021,247Z" fill="#ffde95" stroke="#ffde95" stroke-width="1.51"/><path d="M945,1254L717,1256L998,1318Z" fill="#b0adb1" stroke="#b0adb1" stroke-width="1.51"/><path d="M867,123L926,231L1008,115Z" fill="#ffca87" stroke="#ffca87" stroke-width="1.51"/><path d="M936,-178L940,-50L1003,-128Z" fill="#efa384" stroke="#efa384" stroke-width="1.51"/><path d="M832,898L800,971L888,1042Z" fill="#c3dea5" stroke="#c3dea5" stroke-width="1.51"/><path d="M782,487L856,649L926,438Z" fill="#fff6b1" stroke="#fff6b1" stroke-width="1.51"/><path d="M787,61L867,123L940,-50Z" fill="#feb176" stroke="#feb176" stroke-width="1.51"/><path d="M936,-178L809,-183L940,-50Z" fill="#eb9c7d" stroke="#eb9c7d" stroke-width="1.51"/><path d="M761,317L926,438L950,314Z" fill="#ffe799" stroke="#ffe799" stroke-width="1.51"/><path d="M769,1171L945,1254L953,1198Z" fill="#abb9b7" stroke="#abb9b7" stroke-width="1.51"/><path d="M888,1042L769,1171L953,1198Z" fill="#afc5b3" stroke="#afc5b3" stroke-width="1.51"/><path d="M926,231L761,317L950,314Z" fill="#ffdc90" stroke="#ffdc90" stroke-width="1.51"/><path d="M769,1171L717,1256L945,1254Z" fill="#aeb1ad" stroke="#aeb1ad" stroke-width="1.51"/><path d="M809,-183L717,-99L940,-50Z" fill="#ee9b76" stroke="#ee9b76" stroke-width="1.51"/><path d="M717,-99L787,61L940,-50Z" fill="#f6a473" stroke="#f6a473" stroke-width="1.51"/><path d="M761,317L782,487L926,438Z" fill="#ffea9c" stroke="#ffea9c" stroke-width="1.51"/><path d="M867,123L761,317L926,231Z" fill="#ffd185" stroke="#ffd185" stroke-width="1.51"/><path d="M782,487L736,560L856,649Z" fill="#fdf3aa" stroke="#fdf3aa" stroke-width="1.51"/><path d="M701,215L761,317L867,123Z" fill="#ffcc7d" stroke="#ffcc7d" stroke-width="1.51"/><path d="M856,649L699,682L901,739Z" fill="#f4f29e" stroke="#f4f29e" stroke-width="1.51"/><path d="M699,682L832,898L901,739Z" fill="#e7eb9e" stroke="#e7eb9e" stroke-width="1.51"/><path d="M800,971L769,1171L888,1042Z" fill="#b7d1a7" stroke="#b7d1a7" stroke-width="1.51"/><path d="M699,682L737,926L832,898Z" fill="#dce39b" stroke="#dce39b" stroke-width="1.51"/><path d="M787,61L682,152L867,123Z" fill="#feb772" stroke="#feb772" stroke-width="1.51"/><path d="M682,152L701,215L867,123Z" fill="#febf74" stroke="#febf74" stroke-width="1.51"/><path d="M736,560L699,682L856,649Z" fill="#f8f09f" stroke="#f8f09f" stroke-width="1.51"/><path d="M699,682L601,794L737,926Z" fill="#e2df92" stroke="#e2df92" stroke-width="1.51"/><path d="M761,317L677,367L782,487Z" fill="#fee38f" stroke="#fee38f" stroke-width="1.51"/><path d="M737,926L800,971L832,898Z" fill="#cbdea0" stroke="#cbdea0" stroke-width="1.51"/><path d="M584,980L586,1146L769,1171Z" fill="#b6bd99" stroke="#b6bd99" stroke-width="1.51"/><path d="M584,980L769,1171L800,971Z" fill="#b9cf9a" stroke="#b9cf9a" stroke-width="1.51"/><path d="M737,926L584,980L800,971Z" fill="#c7d698" stroke="#c7d698" stroke-width="1.51"/><path d="M562,-183L717,-99L809,-183Z" fill="#e58c68" stroke="#e58c68" stroke-width="1.51"/><path d="M601,794L614,890L737,926Z" fill="#d7d892" stroke="#d7d892" stroke-width="1.51"/><path d="M677,367L638,413L782,487Z" fill="#ffe290" stroke="#ffe290" stroke-width="1.51"/><path d="M717,-99L602,84L787,61Z" fill="#f9a266" stroke="#f9a266" stroke-width="1.51"/><path d="M602,84L682,152L787,61Z" fill="#fdaf68" stroke="#fdaf68" stroke-width="1.51"/><path d="M638,413L736,560L782,487Z" fill="#ffea9c" stroke="#ffea9c" stroke-width="1.51"/><path d="M586,1146L717,1256L769,1171Z" fill="#adafa4" stroke="#adafa4" stroke-width="1.51"/><path d="M701,215L677,367L761,317Z" fill="#fed480" stroke="#fed480" stroke-width="1.51"/><path d="M562,-183L585,-111L717,-99Z" fill="#e88763" stroke="#e88763" stroke-width="1.51"/><path d="M585,-111L602,84L717,-99Z" fill="#f39463" stroke="#f39463" stroke-width="1.51"/><path d="M615,582L699,682L736,560Z" fill="#faea9a" stroke="#faea9a" stroke-width="1.51"/><path d="M638,413L615,582L736,560Z" fill="#ffe89d" stroke="#ffe89d" stroke-width="1.51"/><path d="M614,890L584,980L737,926Z" fill="#ccd292" stroke="#ccd292" stroke-width="1.51"/><path d="M586,1146L621,1282L717,1256Z" fill="#b0a49d" stroke="#b0a49d" stroke-width="1.51"/><path d="M538,322L677,367L701,215Z" fill="#fecc7a" stroke="#fecc7a" stroke-width="1.51"/><path d="M336,1309L245,1317L468,1337Z" fill="#b57280" stroke="#b57280" stroke-width="1.51"/><path d="M682,152L520,204L701,215Z" fill="#feba6c" stroke="#feba6c" stroke-width="1.51"/><path d="M520,204L538,322L701,215Z" fill="#febf6e" stroke="#febf6e" stroke-width="1.51"/><path d="M615,582L601,794L699,682Z" fill="#f5e38c" stroke="#f5e38c" stroke-width="1.51"/><path d="M602,84L520,204L682,152Z" fill="#fdae65" stroke="#fdae65" stroke-width="1.51"/><path d="M502,456L615,582L638,413Z" fill="#ffdc90" stroke="#ffdc90" stroke-width="1.51"/><path d="M538,322L638,413L677,367Z" fill="#fed581" stroke="#fed581" stroke-width="1.51"/><path d="M-56,1293L-221,1276L101,1339Z" fill="#9f507b" stroke="#9f507b" stroke-width="1.51"/><path d="M585,-111L466,-35L602,84Z" fill="#f48d5b" stroke="#f48d5b" stroke-width="1.51"/><path d="M434,720L601,794L615,582Z" fill="#f4da83" stroke="#f4da83" stroke-width="1.51"/><path d="M439,626L434,720L615,582Z" fill="#f9d685" stroke="#f9d685" stroke-width="1.51"/><path d="M586,1146L478,1189L621,1282Z" fill="#b1a098" stroke="#b1a098" stroke-width="1.51"/><path d="M538,322L502,456L638,413Z" fill="#ffd280" stroke="#ffd280" stroke-width="1.51"/><path d="M584,980L433,980L586,1146Z" fill="#bebf8a" stroke="#bebf8a" stroke-width="1.51"/><path d="M478,1189L468,1337L621,1282Z" fill="#b49090" stroke="#b49090" stroke-width="1.51"/><path d="M466,-35L453,90L602,84Z" fill="#fa9155" stroke="#fa9155" stroke-width="1.51"/><path d="M601,794L428,915L614,890Z" fill="#d9ce89" stroke="#d9ce89" stroke-width="1.51"/><path d="M428,915L584,980L614,890Z" fill="#cfc889" stroke="#cfc889" stroke-width="1.51"/><path d="M502,456L439,626L615,582Z" fill="#ffdb92" stroke="#ffdb92" stroke-width="1.51"/><path d="M433,980L478,1189L586,1146Z" fill="#b9ad8d" stroke="#b9ad8d" stroke-width="1.51"/><path d="M434,720L428,915L601,794Z" fill="#e3cc81" stroke="#e3cc81" stroke-width="1.51"/><path d="M453,90L520,204L602,84Z" fill="#fca25d" stroke="#fca25d" stroke-width="1.51"/><path d="M428,915L433,980L584,980Z" fill="#cbc084" stroke="#cbc084" stroke-width="1.51"/><path d="M562,-183L466,-35L585,-111Z" fill="#eb815e" stroke="#eb815e" stroke-width="1.51"/><path d="M447,-246L466,-35L562,-183Z" fill="#e27658" stroke="#e27658" stroke-width="1.51"/><path d="M447,-246L365,-68L466,-35Z" fill="#e87355" stroke="#e87355" stroke-width="1.51"/><path d="M367,521L439,626L502,456Z" fill="#ffd18c" stroke="#ffd18c" stroke-width="1.51"/><path d="M520,204L399,369L538,322Z" fill="#febc6c" stroke="#febc6c" stroke-width="1.51"/><path d="M399,369L502,456L538,322Z" fill="#fec877" stroke="#fec877" stroke-width="1.51"/><path d="M339,775L428,915L434,720Z" fill="#e4c27c" stroke="#e4c27c" stroke-width="1.51"/><path d="M433,980L316,1072L478,1189Z" fill="#bca885" stroke="#bca885" stroke-width="1.51"/><path d="M331,148L399,369L520,204Z" fill="#fdab60" stroke="#fdab60" stroke-width="1.51"/><path d="M386,116L331,148L520,204Z" fill="#fb9b57" stroke="#fb9b57" stroke-width="1.51"/><path d="M453,90L386,116L520,204Z" fill="#fb9c58" stroke="#fb9c58" stroke-width="1.51"/><path d="M316,1072L305,1136L478,1189Z" fill="#b89986" stroke="#b89986" stroke-width="1.51"/><path d="M336,1309L468,1337L478,1189Z" fill="#b58488" stroke="#b58488" stroke-width="1.51"/><path d="M399,369L367,521L502,456Z" fill="#ffc77d" stroke="#ffc77d" stroke-width="1.51"/><path d="M294,-237L365,-68L447,-246Z" fill="#db624f" stroke="#db624f" stroke-width="1.51"/><path d="M365,-68L386,116L453,90Z" fill="#f7844e" stroke="#f7844e" stroke-width="1.51"/><path d="M365,-68L453,90L466,-35Z" fill="#f38151" stroke="#f38151" stroke-width="1.51"/><path d="M305,1136L336,1309L478,1189Z" fill="#b38a89" stroke="#b38a89" stroke-width="1.51"/><path d="M305,1136L271,1205L336,1309Z" fill="#b38184" stroke="#b38184" stroke-width="1.51"/><path d="M339,775L378,936L428,915Z" fill="#d9bb7c" stroke="#d9bb7c" stroke-width="1.51"/><path d="M367,521L340,558L439,626Z" fill="#ffca86" stroke="#ffca86" stroke-width="1.51"/><path d="M294,-237L258,-173L365,-68Z" fill="#dd5b4c" stroke="#dd5b4c" stroke-width="1.51"/><path d="M331,148L253,370L399,369Z" fill="#fca862" stroke="#fca862" stroke-width="1.51"/><path d="M428,915L378,936L433,980Z" fill="#ceb97f" stroke="#ceb97f" stroke-width="1.51"/><path d="M339,775L434,720L439,626Z" fill="#f3c977" stroke="#f3c977" stroke-width="1.51"/><path d="M235,644L339,775L439,626Z" fill="#f6c276" stroke="#f6c276" stroke-width="1.51"/><path d="M378,936L316,1072L433,980Z" fill="#c5b17d" stroke="#c5b17d" stroke-width="1.51"/><path d="M340,558L235,644L439,626Z" fill="#fbc47e" stroke="#fbc47e" stroke-width="1.51"/><path d="M-24,-255L28,-220L294,-237Z" fill="#c63848" stroke="#c63848" stroke-width="1.51"/><path d="M234,155L253,370L331,148Z" fill="#fa9655" stroke="#fa9655" stroke-width="1.51"/><path d="M161,68L331,148L365,-68Z" fill="#f57546" stroke="#f57546" stroke-width="1.51"/><path d="M339,775L214,854L378,936Z" fill="#dcb477" stroke="#dcb477" stroke-width="1.51"/><path d="M365,-68L331,148L386,116Z" fill="#f8824c" stroke="#f8824c" stroke-width="1.51"/><path d="M253,370L367,521L399,369Z" fill="#ffba73" stroke="#ffba73" stroke-width="1.51"/><path d="M161,68L234,155L331,148Z" fill="#f77d4a" stroke="#f77d4a" stroke-width="1.51"/><path d="M253,370L194,475L367,521Z" fill="#ffb675" stroke="#ffb675" stroke-width="1.51"/><path d="M270,1065L316,1072L378,936Z" fill="#c1a879" stroke="#c1a879" stroke-width="1.51"/><path d="M214,854L270,1065L378,936Z" fill="#cdaa77" stroke="#cdaa77" stroke-width="1.51"/><path d="M235,644L212,742L339,775Z" fill="#f1b76f" stroke="#f1b76f" stroke-width="1.51"/><path d="M168,-110L161,68L365,-68Z" fill="#ec6147" stroke="#ec6147" stroke-width="1.51"/><path d="M194,475L340,558L367,521Z" fill="#ffbf80" stroke="#ffbf80" stroke-width="1.51"/><path d="M258,-173L168,-110L365,-68Z" fill="#e45a4b" stroke="#e45a4b" stroke-width="1.51"/><path d="M271,1205L245,1317L336,1309Z" fill="#b5737e" stroke="#b5737e" stroke-width="1.51"/><path d="M212,742L214,854L339,775Z" fill="#e6b171" stroke="#e6b171" stroke-width="1.51"/><path d="M194,475L235,644L340,558Z" fill="#ffbb7e" stroke="#ffbb7e" stroke-width="1.51"/><path d="M234,155L123,221L253,370Z" fill="#f99257" stroke="#f99257" stroke-width="1.51"/><path d="M270,1065L305,1136L316,1072Z" fill="#bb997e" stroke="#bb997e" stroke-width="1.51"/><path d="M214,854L95,906L270,1065Z" fill="#cca174" stroke="#cca174" stroke-width="1.51"/><path d="M95,906L108,1055L270,1065Z" fill="#c09975" stroke="#c09975" stroke-width="1.51"/><path d="M270,1065L271,1205L305,1136Z" fill="#b78e81" stroke="#b78e81" stroke-width="1.51"/><path d="M270,1065L108,1055L271,1205Z" fill="#b98c7b" stroke="#b98c7b" stroke-width="1.51"/><path d="M108,1055L79,1171L271,1205Z" fill="#b2807f" stroke="#b2807f" stroke-width="1.51"/><path d="M28,-220L258,-173L294,-237Z" fill="#d04547" stroke="#d04547" stroke-width="1.51"/><path d="M123,221L92,379L253,370Z" fill="#f79a61" stroke="#f79a61" stroke-width="1.51"/><path d="M28,-220L168,-110L258,-173Z" fill="#d54649" stroke="#d54649" stroke-width="1.51"/><path d="M79,1171L245,1317L271,1205Z" fill="#b1737f" stroke="#b1737f" stroke-width="1.51"/><path d="M79,1171L101,1339L245,1317Z" fill="#ae667c" stroke="#ae667c" stroke-width="1.51"/><path d="M194,475L58,637L235,644Z" fill="#f8b17b" stroke="#f8b17b" stroke-width="1.51"/><path d="M92,379L194,475L253,370Z" fill="#faa86c" stroke="#faa86c" stroke-width="1.51"/><path d="M70,-28L161,68L168,-110Z" fill="#e65a49" stroke="#e65a49" stroke-width="1.51"/><path d="M58,637L109,765L212,742Z" fill="#ecab6f" stroke="#ecab6f" stroke-width="1.51"/><path d="M212,742L109,765L214,854Z" fill="#e3aa71" stroke="#e3aa71" stroke-width="1.51"/><path d="M58,637L212,742L235,644Z" fill="#f2b071" stroke="#f2b071" stroke-width="1.51"/><path d="M161,68L123,221L234,155Z" fill="#f47c4d" stroke="#f47c4d" stroke-width="1.51"/><path d="M47,469L58,637L194,475Z" fill="#f7ac80" stroke="#f7ac80" stroke-width="1.51"/><path d="M109,765L95,906L214,854Z" fill="#d9a373" stroke="#d9a373" stroke-width="1.51"/><path d="M92,379L47,469L194,475Z" fill="#f7a573" stroke="#f7a573" stroke-width="1.51"/><path d="M41,42L123,221L161,68Z" fill="#ee6e4c" stroke="#ee6e4c" stroke-width="1.51"/><path d="M70,-28L41,42L161,68Z" fill="#e95d48" stroke="#e95d48" stroke-width="1.51"/><path d="M28,-220L70,-28L168,-110Z" fill="#da474d" stroke="#da474d" stroke-width="1.51"/><path d="M-12,302L92,379L123,221Z" fill="#f18e61" stroke="#f18e61" stroke-width="1.51"/><path d="M47,469L-1,609L58,637Z" fill="#f1a780" stroke="#f1a780" stroke-width="1.51"/><path d="M79,1171L-21,1195L101,1339Z" fill="#a76780" stroke="#a76780" stroke-width="1.51"/><path d="M-21,1195L-56,1293L101,1339Z" fill="#a65b7e" stroke="#a65b7e" stroke-width="1.51"/><path d="M95,906L-17,1061L108,1055Z" fill="#ba9277" stroke="#ba9277" stroke-width="1.51"/><path d="M-17,1061L79,1171L108,1055Z" fill="#b0837d" stroke="#b0837d" stroke-width="1.51"/><path d="M-31,834L95,906L109,765Z" fill="#d59d75" stroke="#d59d75" stroke-width="1.51"/><path d="M41,42L-30,214L123,221Z" fill="#ec7352" stroke="#ec7352" stroke-width="1.51"/><path d="M-30,214L-12,302L123,221Z" fill="#ed825b" stroke="#ed825b" stroke-width="1.51"/><path d="M58,637L-44,794L109,765Z" fill="#e4a372" stroke="#e4a372" stroke-width="1.51"/><path d="M-44,794L-31,834L109,765Z" fill="#d89c75" stroke="#d89c75" stroke-width="1.51"/><path d="M28,-220L-74,-27L70,-28Z" fill="#d8434e" stroke="#d8434e" stroke-width="1.51"/><path d="M-31,834L-17,1061L95,906Z" fill="#c39378" stroke="#c39378" stroke-width="1.51"/><path d="M-12,302L47,469L92,379Z" fill="#f1996c" stroke="#f1996c" stroke-width="1.51"/><path d="M-1,609L-44,794L58,637Z" fill="#e7a274" stroke="#e7a274" stroke-width="1.51"/><path d="M-17,1061L-21,1195L79,1171Z" fill="#a97681" stroke="#a97681" stroke-width="1.51"/><path d="M-12,302L-88,470L47,469Z" fill="#ee9871" stroke="#ee9871" stroke-width="1.51"/><path d="M-74,-27L41,42L70,-28Z" fill="#e1504b" stroke="#e1504b" stroke-width="1.51"/><path d="M-99,23L-30,214L41,42Z" fill="#e45e4d" stroke="#e45e4d" stroke-width="1.51"/><path d="M-88,470L-1,609L47,469Z" fill="#f0a281" stroke="#f0a281" stroke-width="1.51"/><path d="M-24,-255L-74,-27L28,-220Z" fill="#c9354c" stroke="#c9354c" stroke-width="1.51"/><path d="M-31,834L-145,837L-17,1061Z" fill="#bf8e76" stroke="#bf8e76" stroke-width="1.51"/><path d="M-74,-27L-99,23L41,42Z" fill="#dd4e4a" stroke="#dd4e4a" stroke-width="1.51"/><path d="M-145,837L-217,1013L-17,1061Z" fill="#ae8575" stroke="#ae8575" stroke-width="1.51"/><path d="M-220,-249L-194,-36L-74,-27Z" fill="#c4304b" stroke="#c4304b" stroke-width="1.51"/><path d="M-236,614L-208,782L-44,794Z" fill="#cf926f" stroke="#cf926f" stroke-width="1.51"/><path d="M-99,23L-173,195L-30,214Z" fill="#de634f" stroke="#de634f" stroke-width="1.51"/><path d="M-220,-249L-74,-27L-24,-255Z" fill="#be2a4a" stroke="#be2a4a" stroke-width="1.51"/><path d="M-217,1013L-161,1098L-17,1061Z" fill="#a27b77" stroke="#a27b77" stroke-width="1.51"/><path d="M-161,1098L-21,1195L-17,1061Z" fill="#a4757e" stroke="#a4757e" stroke-width="1.51"/><path d="M-159,463L-88,470L-12,302Z" fill="#e6916f" stroke="#e6916f" stroke-width="1.51"/><path d="M-224,304L-159,463L-12,302Z" fill="#df8766" stroke="#df8766" stroke-width="1.51"/><path d="M-236,614L-44,794L-1,609Z" fill="#de9a73" stroke="#de9a73" stroke-width="1.51"/><path d="M-88,470L-236,614L-1,609Z" fill="#e49c7f" stroke="#e49c7f" stroke-width="1.51"/><path d="M-143,31L-173,195L-99,23Z" fill="#d75249" stroke="#d75249" stroke-width="1.51"/><path d="M-30,214L-173,195L-12,302Z" fill="#e47959" stroke="#e47959" stroke-width="1.51"/><path d="M-173,195L-224,304L-12,302Z" fill="#dd785b" stroke="#dd785b" stroke-width="1.51"/><path d="M-221,1276L-56,1293L-21,1195Z" fill="#9a577d" stroke="#9a577d" stroke-width="1.51"/><path d="M-161,1098L-221,1276L-21,1195Z" fill="#946181" stroke="#946181" stroke-width="1.51"/><path d="M-159,463L-236,614L-88,470Z" fill="#df957c" stroke="#df957c" stroke-width="1.51"/><path d="M-44,794L-145,837L-31,834Z" fill="#cb9475" stroke="#cb9475" stroke-width="1.51"/><path d="M-208,782L-145,837L-44,794Z" fill="#c79073" stroke="#c79073" stroke-width="1.51"/><path d="M-143,31L-99,23L-74,-27Z" fill="#d54849" stroke="#d54849" stroke-width="1.51"/><path d="M-194,-36L-143,31L-74,-27Z" fill="#d04249" stroke="#d04249" stroke-width="1.51"/><path d="M-208,782L-217,1013L-145,837Z" fill="#b58673" stroke="#b58673" stroke-width="1.51"/><path d="M-194,-36L-173,195L-143,31Z" fill="#d34b47" stroke="#d34b47" stroke-width="1.51"/><path d="M-217,1013L-221,1276L-161,1098Z" fill="#93687a" stroke="#93687a" stroke-width="1.51"/><path d="M-224,304L-236,614L-159,463Z" fill="#d98c73" stroke="#d98c73" stroke-width="1.51"/><path d="M-194,-36L-224,304L-173,195Z" fill="#d35d4e" stroke="#d35d4e" stroke-width="1.51"/><path d="M-220,-249L-224,304L-194,-36Z" fill="#c93e46" stroke="#c93e46" stroke-width="1.51"/><path d="M-236,614L-217,1013L-208,782Z" fill="#be8870" stroke="#be8870" stroke-width="1.51"/><path d="M-236,614L-221,1276L-217,1013Z" fill="#a47d72" stroke="#a47d72" stroke-width="1.51"/><path d="M-236,614L-224,304L-220,-249Z" fill="#d26954" stroke="#d26954" stroke-width="1.51"/></svg>